<svg xmlns="http://www.w3.org/2000/svg" viewBox="0 0 400 300">
    <!-- Base background -->
    <rect width="400" height="300" fill="white"/>
    
    <!-- Geometric gradient shapes -->
    <g opacity="0.7">
      <!-- Circle -->
      <circle cx="300" cy="100" r="60" fill="#6366f1" opacity="0.1"/>
      
      <!-- Overlapping rectangles -->
      <rect x="250" y="50" width="80" height="80" 
            transform="rotate(45, 290, 90)" 
            fill="#8b5cf6" 
            opacity="0.1"/>
      
      <!-- Triangle -->
      <path d="M270 150 L320 80 L370 150 Z" 
            fill="#ec4899" 
            opacity="0.1"/>
    </g>
    
    <!-- Modern script lines -->
    <g opacity="0.6">
      <path d="M50 150 Q150 100, 200 150 T350 150" 
            stroke="#6366f1" 
            fill="none" 
            stroke-width="2"/>
      
      <path d="M80 180 Q170 130, 220 180 T320 180" 
            stroke="#8b5cf6" 
            fill="none" 
            stroke-width="2"/>
    </g>
    
    <!-- Geometric grid pattern -->
    <g opacity="0.1">
      <path d="M50 50 L100 50 L100 100 L50 100 Z" 
            stroke="#ec4899" 
            fill="none" 
            stroke-width="1"/>
      
      <path d="M120 70 L170 70 L170 120 L120 120 Z" 
            stroke="#6366f1" 
            fill="none" 
            stroke-width="1"/>
      
      <path d="M80 130 L130 130 L130 180 L80 180 Z" 
            stroke="#8b5cf6" 
            fill="none" 
            stroke-width="1"/>
    </g>
    
    <!-- Decorative elements -->
    <g opacity="0.3">
      <!-- Diamond shapes -->
      <path d="M200 40 L210 50 L200 60 L190 50 Z" fill="#6366f1"/>
      <path d="M220 60 L230 70 L220 80 L210 70 Z" fill="#8b5cf6"/>
      <path d="M240 80 L250 90 L240 100 L230 90 Z" fill="#ec4899"/>
      
      <!-- Line accents -->
      <line x1="50" y1="200" x2="100" y2="200" stroke="#6366f1" stroke-width="2"/>
      <line x1="120" y1="200" x2="170" y2="200" stroke="#8b5cf6" stroke-width="2"/>
      <line x1="190" y1="200" x2="240" y2="200" stroke="#ec4899" stroke-width="2"/>
    </g>
    
    <!-- Abstract pen tip -->
    <g opacity="0.5">
      <path d="M300 200 L320 180 L340 200 L320 220 Z" 
            fill="none" 
            stroke="#6366f1" 
            stroke-width="2"/>
      
      <circle cx="320" cy="200" r="5" fill="#8b5cf6"/>
    </g>
    
    <!-- Dotted pattern -->
    <g opacity="0.3">
      <circle cx="50" cy="250" r="2" fill="#6366f1"/>
      <circle cx="70" cy="250" r="2" fill="#8b5cf6"/>
      <circle cx="90" cy="250" r="2" fill="#ec4899"/>
      <circle cx="110" cy="250" r="2" fill="#6366f1"/>
      <circle cx="130" cy="250" r="2" fill="#8b5cf6"/>
      <circle cx="150" cy="250" r="2" fill="#ec4899"/>
    </g>
  </svg>